<svg width="52" height="52" viewBox="0 0 52 52" fill="none" xmlns="http://www.w3.org/2000/svg">
<mask id="mask0_2849_19318" style="mask-type:alpha" maskUnits="userSpaceOnUse" x="0" y="0" width="52" height="52">
<rect width="52" height="52" fill="#D9D9D9"/>
</mask>
<g mask="url(#mask0_2849_19318)">
<mask id="mask1_2849_19318" style="mask-type:luminance" maskUnits="userSpaceOnUse" x="8" y="6" width="36" height="40">
<path d="M43.7274 6H8V46H43.7274V6Z" fill="white"/>
</mask>
<g mask="url(#mask1_2849_19318)">
<path d="M11.4175 31.5567V33.1374C11.4176 33.4731 11.4988 33.8037 11.6542 34.1013C11.8096 34.399 12.0346 34.6545 12.31 34.8465L18.5752 28.5811L16.8382 26.8442C16.7917 26.7978 16.7366 26.7609 16.6759 26.7357C16.6152 26.7106 16.5501 26.6976 16.4844 26.6976C16.4187 26.6976 16.3536 26.7106 16.2929 26.7357C16.2322 26.7609 16.177 26.7978 16.1305 26.8442L11.4175 31.5567Z" fill="url(#paint0_linear_2849_19318)"/>
<path d="M16.4838 24.7933C16.6939 24.7928 16.9019 24.8338 17.096 24.9143C17.29 24.9947 17.4661 25.1128 17.6142 25.2617L19.7537 27.4012L24.1466 23.0083C24.6022 22.5534 25.2198 22.298 25.8636 22.298C26.5074 22.298 27.125 22.5534 27.5806 23.0083L33.6887 29.1164L35.5765 27.2286C35.8766 26.9292 36.2829 26.7611 36.7069 26.7611C37.1306 26.7611 37.5371 26.9292 37.837 27.2286L40.3099 29.7034V18.8634C40.3099 18.4974 40.2135 18.1378 40.0303 17.8208C39.8473 17.5038 39.5841 17.2406 39.2671 17.0576L26.9062 9.92089C26.5892 9.73785 26.2295 9.64148 25.8634 9.64148C25.4973 9.64148 25.1377 9.73785 24.8206 9.92089L12.4595 17.0576C12.1426 17.2406 11.8793 17.5038 11.6963 17.8208C11.5132 18.1378 11.4168 18.4974 11.4167 18.8634V29.1975L15.3528 25.2615C15.5009 25.1124 15.6772 24.9943 15.8714 24.9141C16.0655 24.8338 16.2737 24.7926 16.4838 24.7933Z" fill="url(#paint1_linear_2849_19318)"/>
<path d="M34.8682 30.2968L39.4169 34.8464C39.6924 34.6544 39.9173 34.3987 40.0726 34.1012C40.228 33.8036 40.309 33.473 40.3092 33.1373V32.0622L37.0595 28.8124C36.9656 28.7186 36.8383 28.6659 36.7056 28.6659C36.5728 28.6659 36.4455 28.7186 36.3516 28.8124L34.8682 30.2968Z" fill="url(#paint2_linear_2849_19318)"/>
<path d="M33.6882 31.4758L32.509 30.2967L26.4009 24.1888C26.2583 24.0464 26.0652 23.9666 25.8638 23.9666C25.6623 23.9666 25.4692 24.0464 25.3266 24.1888L20.9338 28.5817L19.7543 29.7611L13.7991 35.7157L24.8203 42.0792C25.1374 42.2622 25.497 42.3586 25.8631 42.3586C26.2292 42.3586 26.589 42.2622 26.9059 42.0792L37.9272 35.7157L33.6882 31.4758Z" fill="url(#paint3_linear_2849_19318)"/>
<path d="M25.8638 7.72457C26.2726 7.72446 26.6745 7.83205 27.0285 8.03651L40.8382 16.0096C41.1923 16.2141 41.4863 16.5081 41.6907 16.8623C41.8952 17.2164 42.0028 17.6181 42.0028 18.027V33.9732C42.0028 34.382 41.8952 34.7837 41.6907 35.1378C41.4863 35.4919 41.1923 35.786 40.8382 35.9904L27.0285 43.9635C26.6743 44.1679 26.2726 44.2756 25.8637 44.2756C25.4548 44.2756 25.0531 44.1679 24.6989 43.9635L10.8893 35.9904C10.5351 35.786 10.2411 35.4919 10.0366 35.1378C9.83219 34.7837 9.72456 34.382 9.72457 33.9732V18.027C9.72456 17.6181 9.83219 17.2164 10.0366 16.8623C10.2411 16.5081 10.5351 16.2141 10.8893 16.0096L24.6989 8.03651C25.0531 7.83206 25.4549 7.72448 25.8638 7.72457ZM25.8638 6C25.1522 6.00028 24.4532 6.18759 23.8368 6.54315L10.027 14.5162C9.41146 14.8729 8.90032 15.3848 8.54462 16.0009C8.18893 16.617 8.00113 17.3156 8 18.027V33.9732C8.00117 34.6846 8.189 35.3833 8.54473 35.9992C8.90045 36.6154 9.41162 37.1273 10.0272 37.484L23.8368 45.457C24.4531 45.8128 25.1522 46 25.8638 46C26.5754 46 27.2744 45.8128 27.8908 45.457L41.7004 37.484C42.316 37.1274 42.8274 36.6154 43.1832 35.9994C43.539 35.3833 43.7269 34.6846 43.7281 33.9732V18.027C43.7271 17.3156 43.5392 16.617 43.1835 16.0009C42.8277 15.3848 42.3166 14.8729 41.7012 14.5162L27.8915 6.54315C27.2752 6.18761 26.5761 6.0003 25.8645 6H25.8638Z" fill="url(#paint4_linear_2849_19318)"/>
</g>
</g>
<defs>
<linearGradient id="paint0_linear_2849_19318" x1="14.9963" y1="9.89445" x2="14.9963" y2="42.4902" gradientUnits="userSpaceOnUse">
<stop offset="0.004" stop-color="#4C99D4"/>
<stop offset="0.5" stop-color="#56C3E6"/>
<stop offset="1" stop-color="#B0D8BC"/>
</linearGradient>
<linearGradient id="paint1_linear_2849_19318" x1="25.8633" y1="9.90229" x2="25.8633" y2="42.503" gradientUnits="userSpaceOnUse">
<stop offset="0.004" stop-color="#4C99D4"/>
<stop offset="0.5" stop-color="#56C3E6"/>
<stop offset="1" stop-color="#B0D8BC"/>
</linearGradient>
<linearGradient id="paint2_linear_2849_19318" x1="37.5888" y1="9.89535" x2="37.5888" y2="42.4919" gradientUnits="userSpaceOnUse">
<stop offset="0.004" stop-color="#4C99D4"/>
<stop offset="0.5" stop-color="#56C3E6"/>
<stop offset="1" stop-color="#B0D8BC"/>
</linearGradient>
<linearGradient id="paint3_linear_2849_19318" x1="25.8631" y1="9.89661" x2="25.8631" y2="42.4873" gradientUnits="userSpaceOnUse">
<stop offset="0.004" stop-color="#4C99D4"/>
<stop offset="0.5" stop-color="#56C3E6"/>
<stop offset="1" stop-color="#B0D8BC"/>
</linearGradient>
<linearGradient id="paint4_linear_2849_19318" x1="25.8641" y1="46" x2="25.8641" y2="6" gradientUnits="userSpaceOnUse">
<stop stop-color="#B0D8BC"/>
<stop offset="0.5" stop-color="#56C3E6"/>
<stop offset="0.996" stop-color="#4C99D4"/>
</linearGradient>
</defs>
</svg>
